<svg id="visual" viewBox="0 0 900 600" width="900" height="600" xmlns="http://www.w3.org/2000/svg" xmlns:xlink="http://www.w3.org/1999/xlink" version="1.1"><path d="M0 43L12.5 45C25 47 50 51 75 52C100 53 125 51 150 50C175 49 200 49 225 48C250 47 275 45 300 48C325 51 350 59 375 57C400 55 425 43 450 39C475 35 500 39 525 48C550 57 575 71 600 76C625 81 650 77 675 72C700 67 725 61 750 54C775 47 800 39 825 39C850 39 875 47 887.5 51L900 55L900 0L887.5 0C875 0 850 0 825 0C800 0 775 0 750 0C725 0 700 0 675 0C650 0 625 0 600 0C575 0 550 0 525 0C500 0 475 0 450 0C425 0 400 0 375 0C350 0 325 0 300 0C275 0 250 0 225 0C200 0 175 0 150 0C125 0 100 0 75 0C50 0 25 0 12.5 0L0 0Z" fill="#fff6fa"></path><path d="M0 139L12.5 132C25 125 50 111 75 106C100 101 125 105 150 111C175 117 200 125 225 127C250 129 275 125 300 123C325 121 350 121 375 119C400 117 425 113 450 105C475 97 500 85 525 87C550 89 575 105 600 113C625 121 650 121 675 124C700 127 725 133 750 125C775 117 800 95 825 87C850 79 875 85 887.5 88L900 91L900 53L887.5 49C875 45 850 37 825 37C800 37 775 45 750 52C725 59 700 65 675 70C650 75 625 79 600 74C575 69 550 55 525 46C500 37 475 33 450 37C425 41 400 53 375 55C350 57 325 49 300 46C275 43 250 45 225 46C200 47 175 47 150 48C125 49 100 51 75 50C50 49 25 45 12.5 43L0 41Z" fill="#fff4f9"></path><path d="M0 307L12.5 297C25 287 50 267 75 259C100 251 125 255 150 282C175 309 200 359 225 375C250 391 275 373 300 339C325 305 350 255 375 239C400 223 425 241 450 262C475 283 500 307 525 306C550 305 575 279 600 263C625 247 650 241 675 236C700 231 725 227 750 231C775 235 800 247 825 267C850 287 875 315 887.5 329L900 343L900 89L887.5 86C875 83 850 77 825 85C800 93 775 115 750 123C725 131 700 125 675 122C650 119 625 119 600 111C575 103 550 87 525 85C500 83 475 95 450 103C425 111 400 115 375 117C350 119 325 119 300 121C275 123 250 127 225 125C200 123 175 115 150 109C125 103 100 99 75 104C50 109 25 123 12.5 130L0 137Z" fill="#fff2f8"></path><path d="M0 397L12.5 409C25 421 50 445 75 440C100 435 125 401 150 407C175 413 200 459 225 473C250 487 275 469 300 450C325 431 350 411 375 407C400 403 425 415 450 426C475 437 500 447 525 439C550 431 575 405 600 393C625 381 650 383 675 388C700 393 725 401 750 410C775 419 800 429 825 438C850 447 875 455 887.5 459L900 463L900 341L887.5 327C875 313 850 285 825 265C800 245 775 233 750 229C725 225 700 229 675 234C650 239 625 245 600 261C575 277 550 303 525 304C500 305 475 281 450 260C425 239 400 221 375 237C350 253 325 303 300 337C275 371 250 389 225 373C200 357 175 307 150 280C125 253 100 249 75 257C50 265 25 285 12.5 295L0 305Z" fill="#ffebf3"></path><path d="M0 493L12.5 504C25 515 50 537 75 536C100 535 125 511 150 512C175 513 200 539 225 547C250 555 275 545 300 537C325 529 350 523 375 528C400 533 425 549 450 554C475 559 500 553 525 546C550 539 575 531 600 522C625 513 650 503 675 504C700 505 725 517 750 525C775 533 800 537 825 540C850 543 875 545 887.5 546L900 547L900 461L887.5 457C875 453 850 445 825 436C800 427 775 417 750 408C725 399 700 391 675 386C650 381 625 379 600 391C575 403 550 429 525 437C500 445 475 435 450 424C425 413 400 401 375 405C350 409 325 429 300 448C275 467 250 485 225 471C200 457 175 411 150 405C125 399 100 433 75 438C50 443 25 419 12.5 407L0 395Z" fill="#ffdeec"></path><path d="M0 601L12.5 601C25 601 50 601 75 601C100 601 125 601 150 601C175 601 200 601 225 601C250 601 275 601 300 601C325 601 350 601 375 601C400 601 425 601 450 601C475 601 500 601 525 601C550 601 575 601 600 601C625 601 650 601 675 601C700 601 725 601 750 601C775 601 800 601 825 601C850 601 875 601 887.5 601L900 601L900 545L887.5 544C875 543 850 541 825 538C800 535 775 531 750 523C725 515 700 503 675 502C650 501 625 511 600 520C575 529 550 537 525 544C500 551 475 557 450 552C425 547 400 531 375 526C350 521 325 527 300 535C275 543 250 553 225 545C200 537 175 511 150 510C125 509 100 533 75 534C50 535 25 513 12.5 502L0 491Z" fill="#ffd1e5"></path></svg>